<?xml version="1.0" standalone="no"?>
<!DOCTYPE svg PUBLIC "-//W3C//DTD SVG 20010904//EN"
 "http://www.w3.org/TR/2001/REC-SVG-20010904/DTD/svg10.dtd">
<svg version="1.0" xmlns="http://www.w3.org/2000/svg"
 width="93.000000pt" height="90.000000pt" viewBox="0 0 93.000000 90.000000"
 preserveAspectRatio="xMidYMid meet">
<metadata>
Created by potrace 1.10, written by Peter Selinger 2001-2011
</metadata>
<g transform="translate(0.000000,90.000000) scale(0.100000,-0.100000)"
fill="#595959" stroke="none">
<path d="M400 863 c-19 -8 -83 -35 -143 -60 -65 -27 -112 -53 -118 -65 -7 -13
-11 -85 -10 -188 0 -145 3 -176 22 -225 44 -117 160 -233 272 -271 l49 -16 72
36 c92 45 176 127 219 215 32 65 32 66 35 247 4 224 12 211 -177 289 -143 58
-165 62 -221 38z m192 -94 c68 -28 129 -53 136 -56 11 -5 13 -41 10 -172 -3
-155 -5 -170 -29 -221 -37 -77 -97 -141 -169 -179 -72 -39 -98 -37 -171 10
-61 39 -111 94 -146 161 -28 52 -28 56 -28 226 l0 173 130 54 c72 30 133 54
137 55 4 0 63 -23 130 -51z"/>
<path d="M526 511 l-88 -89 -36 40 c-38 42 -74 48 -80 14 -5 -21 93 -126 118
-126 8 0 62 47 120 105 89 89 103 108 94 123 -6 9 -17 18 -25 20 -8 1 -54 -38
-103 -87z"/>
</g>
</svg>
