<?xml version="1.0" standalone="no"?>
<!DOCTYPE svg PUBLIC "-//W3C//DTD SVG 20010904//EN"
 "http://www.w3.org/TR/2001/REC-SVG-20010904/DTD/svg10.dtd">
<svg version="1.0" xmlns="http://www.w3.org/2000/svg"
 width="93.000000pt" height="96.000000pt" viewBox="0 0 93.000000 96.000000"
 preserveAspectRatio="xMidYMid meet">
<metadata>
Created by potrace 1.10, written by Peter Selinger 2001-2011
</metadata>
<g transform="translate(0.000000,96.000000) scale(0.100000,-0.100000)"
fill="#595959" stroke="none">
<path d="M349 870 c-43 -5 -92 -15 -111 -23 -54 -23 -103 -72 -129 -129 -22
-50 -24 -65 -24 -233 0 -168 2 -183 24 -233 32 -70 86 -116 165 -137 93 -25
362 -18 426 11 54 25 95 65 122 118 30 59 44 219 31 345 -18 157 -68 230 -185
265 -58 18 -226 26 -319 16z m341 -90 c29 -17 53 -41 70 -70 24 -43 25 -51 25
-225 0 -173 -1 -182 -25 -225 -18 -33 -38 -52 -75 -70 -45 -22 -65 -25 -187
-28 -214 -6 -287 20 -332 117 -19 41 -21 64 -21 206 0 142 2 165 21 206 24 51
71 92 124 108 20 6 106 9 195 8 150 -2 163 -4 205 -27z"/>
<path d="M337 622 c-73 -74 -64 -82 89 -82 111 0 126 -2 144 -20 11 -11 20
-32 20 -47 0 -54 -9 -58 -151 -63 -109 -4 -134 -8 -142 -22 -8 -12 -7 -21 2
-32 11 -13 36 -16 136 -16 111 0 125 2 156 23 68 45 74 144 14 204 -32 32 -35
33 -121 33 -68 0 -85 3 -76 12 22 22 9 58 -22 58 -1 0 -23 -22 -49 -48z m51
-24 c19 -19 14 -28 -13 -28 -24 0 -34 18 -18 33 9 10 17 9 31 -5z"/>
</g>
</svg>
