 <svg  version="1.0" xmlns="http://www.w3.org/2000/svg"  width="100.000000pt" height="95.000000pt" viewBox="0 0 100.000000 95.000000"  preserveAspectRatio="xMidYMid meet">  <g transform="translate(0.000000,95.000000) scale(0.100000,-0.100000)" fill="#595959" stroke="none"> <path d="M389 904 c-97 -34 -191 -134 -219 -234 -18 -64 -12 -170 13 -230 21 -51 232 -350 267 -377 19 -16 71 -16 90 0 37 29 246 327 268 381 21 51 24 72 20 145 -3 74 -9 95 -38 149 -37 70 -88 119 -159 153 -61 29 -178 35 -242 13z m187 -59 c64 -19 128 -73 162 -139 23 -44 27 -63 27 -136 0 -66 -5 -93 -21 -123 -30 -56 -237 -336 -249 -336 -12 0 -204 257 -242 325 -25 43 -28 59 -28 134 0 73 4 92 27 136 65 123 193 178 324 139z"/> <path d="M410 697 c-35 -18 -50 -53 -50 -119 0 -103 34 -138 135 -138 100 0 135 35 135 136 0 65 -21 111 -56 124 -36 14 -134 12 -164 -3z m150 -66 c13 -24 13 -91 0 -111 -6 -10 -26 -15 -65 -15 -64 0 -75 10 -75 68 0 64 13 77 75 77 43 0 56 -4 65 -19z"/> </g> </svg> 