 <svg  version="1.0" xmlns="http://www.w3.org/2000/svg"  width="97.000000pt" height="98.000000pt" viewBox="0 0 97.000000 98.000000"  preserveAspectRatio="xMidYMid meet">  <g transform="translate(0.000000,98.000000) scale(0.100000,-0.100000)" fill="#595959" stroke="none"> <path d="M325 884 c-189 -80 -177 -61 -173 -284 l3 -186 33 -66 c44 -90 122 -167 215 -213 71 -35 77 -36 114 -25 88 28 181 101 234 182 61 95 70 136 70 310 0 191 1 180 -15 201 -18 23 -289 137 -324 136 -15 0 -85 -25 -157 -55z m300 -59 l130 -54 0 -168 c0 -161 -1 -170 -26 -224 -45 -96 -149 -189 -227 -205 -71 -14 -200 84 -254 194 -33 66 -33 68 -36 233 l-4 166 79 33 c43 18 103 43 133 56 30 13 60 23 65 23 6 0 69 -24 140 -54z"/> <path d="M300 546 l0 -126 31 0 30 0 -3 100 -3 100 58 0 c93 0 97 -5 97 -110 l0 -90 31 0 31 0 -4 105 c-5 140 -4 139 -153 143 l-115 4 0 -126z"/> <path d="M610 545 l0 -125 30 0 30 0 0 125 0 125 -30 0 -30 0 0 -125z"/> <path d="M400 506 l0 -86 33 0 32 0 -1 82 -2 83 -31 3 -31 3 0 -85z"/> </g> </svg> 